<svg id="Group_97" data-name="Group 97" xmlns="http://www.w3.org/2000/svg" viewBox="0 0 317.24 26.593">
  <defs>
    <style>
      .cls-1 {
        fill: #fff;
      }
    </style>
  </defs>
  <path id="Path_43" data-name="Path 43" class="cls-1" d="M21.885,13.82l-.828.349c-.262.131-.436.218-.48.349a2.158,2.158,0,0,0-.087.741v6.714a31.257,31.257,0,0,1-8.632,1.133q-5.755,0-9.024-3.662A10.957,10.957,0,0,1,0,11.9,11.73,11.73,0,0,1,3.226,3.575,11.792,11.792,0,0,1,12.119,0a13.412,13.412,0,0,1,6.147,1.133A4.422,4.422,0,0,0,19.4.436h.741l.349,6.278H19.138a16.574,16.574,0,0,0-1.264-3.226,8.39,8.39,0,0,0-5.8-1.787A7.6,7.6,0,0,0,6.234,4.142c-1.657,1.744-2.441,4.185-2.441,7.28a10.514,10.514,0,0,0,2.529,7.455,7.734,7.734,0,0,0,5.929,2.485,19.061,19.061,0,0,0,4.229-.305,1.5,1.5,0,0,0,.872-.349,1.978,1.978,0,0,0,.131-.915V15.781a1.53,1.53,0,0,0-.523-1.308,4.033,4.033,0,0,0-1.351-.436l-1.787-.305v-.959h8.109V13.82Z" transform="translate(0 0)"/>
  <path id="Path_44" data-name="Path 44" class="cls-1" d="M121.01,11.335a11.967,11.967,0,0,1-2.964,8.239,11.026,11.026,0,0,1-8.719,3.706,11.463,11.463,0,0,1-8.545-3.313A10.972,10.972,0,0,1,97.6,11.858a11.779,11.779,0,0,1,3.27-8.5A11.232,11.232,0,0,1,109.24,0,11.511,11.511,0,0,1,117.7,3.182a10.911,10.911,0,0,1,3.313,8.152m-3.444-.61a11.552,11.552,0,0,0-3.139-6.8,7.685,7.685,0,0,0-6.888-2.049,7.072,7.072,0,0,0-5.449,3.749,10.407,10.407,0,0,0-1.046,6.8,11.3,11.3,0,0,0,3.27,6.932,7.782,7.782,0,0,0,6.757,1.962,7.083,7.083,0,0,0,5.537-3.88,10.37,10.37,0,0,0,.959-6.714" transform="translate(-55.051 0)"/>
  <path id="Path_45" data-name="Path 45" class="cls-1" d="M169.5,0l-.48,4.185h-1.046L167.8,3.27c-.131-.654-.7-.959-1.787-.959h-4.8V18.964a3.719,3.719,0,0,0,.349,1.875,1.693,1.693,0,0,0,1.264.654l1.264.174v1h-8.85v-1l1.221-.174a1.727,1.727,0,0,0,1.4-.828,3.93,3.93,0,0,0,.305-1.7V2.311h-4.708a2.066,2.066,0,0,0-2.049.959l-.48.915H149.8L151.064,0h.915c.044.305.436.436,1.177.436h14.081c.61,0,.959-.131,1.09-.436Z" transform="translate(-84.495)"/>
  <path id="Path_46" data-name="Path 46" class="cls-1" d="M214.2,17.971l-.872,5.319H197.461v-.959l1-.392a1.491,1.491,0,0,0,.785-.523,3,3,0,0,0,.131-1.09V4.239a3.332,3.332,0,0,0-.174-1.351,1.3,1.3,0,0,0-1.09-.61l-.915-.131V1.1h16.043l-.436,4.665h-1.046c-.044-.48-.174-1.046-.305-1.7a1.4,1.4,0,0,0-.61-1.046,2.619,2.619,0,0,0-1.308-.218h-6.932v8.545h5.972a5.644,5.644,0,0,0,1.482-.087,1.209,1.209,0,0,0,.959-.959l.305-1.177h1v6.147h-1l-.349-1.4a1.209,1.209,0,0,0-.959-.959,10.416,10.416,0,0,0-1.482-.044h-5.929v7.5c0,.523.044.828.174.959a1.377,1.377,0,0,0,.915.218h6.191a2.456,2.456,0,0,0,1.613-.436,4.505,4.505,0,0,0,1.046-1.657l.567-1.482h1.09Z" transform="translate(-111.231 -0.62)"/>
  <path id="Path_47" data-name="Path 47" class="cls-1" d="M278.3,23.233h-8.5v-.959l1.351-.087q.785-.065.785-.523a1.8,1.8,0,0,0-.523-1.046l-6.888-7.978-2.354,2.267v4.752a4.4,4.4,0,0,0,.262,1.962,1.837,1.837,0,0,0,1.308.523l1.308.131v.959H256.2v-.959l1.09-.131c.785-.087,1.264-.262,1.482-.567a3.677,3.677,0,0,0,.305-1.962V4.88a4.6,4.6,0,0,0-.305-2.18,2.194,2.194,0,0,0-1.526-.567l-1-.087V1h8.85V2.046l-1.264.131c-.785.087-1.264.392-1.439.872a6.424,6.424,0,0,0-.174,1.787V12.9l8.414-8.5c.61-.654.959-1.133.959-1.526s-.392-.61-1.221-.7L269.1,2.046V1h8.327V2.046a5.843,5.843,0,0,0-3.488,1.526l-7.324,7.106,8.632,9.94a4.877,4.877,0,0,0,2.267,1.569l.785.262Z" transform="translate(-144.51 -0.564)"/>
  <path id="Path_48" data-name="Path 48" class="cls-1" d="M327.046,17.971l-.872,5.319H310.305v-.959l1-.392a1.491,1.491,0,0,0,.785-.523,3,3,0,0,0,.131-1.09V4.239a3.166,3.166,0,0,0-.218-1.351,1.3,1.3,0,0,0-1.09-.61L310,2.146V1.1h16.043l-.436,4.665h-1.046c-.044-.48-.174-1.046-.305-1.7a1.4,1.4,0,0,0-.61-1.046,2.9,2.9,0,0,0-1.4-.218h-6.932v8.545h5.972a5.644,5.644,0,0,0,1.482-.087,1.209,1.209,0,0,0,.959-.959l.305-1.177h1v6.147h-1l-.349-1.4a1.209,1.209,0,0,0-.959-.959,10.036,10.036,0,0,0-1.482-.044h-5.929v7.5c0,.523.044.828.174.959a1.377,1.377,0,0,0,.915.218h6.19a2.456,2.456,0,0,0,1.613-.436,4.505,4.505,0,0,0,1.046-1.657l.567-1.482h1.221Z" transform="translate(-174.856 -0.62)"/>
  <path id="Path_49" data-name="Path 49" class="cls-1" d="M423.046,23.233h-8.5v-.959l1.352-.087q.785-.065.785-.523a1.8,1.8,0,0,0-.523-1.046L409.227,12.6l-2.354,2.267v4.752a4.394,4.394,0,0,0,.262,1.962,1.837,1.837,0,0,0,1.308.523l1.308.131v1H400.9v-.959l1.09-.131c.785-.087,1.264-.262,1.482-.567a4.192,4.192,0,0,0,.305-1.962V4.88a4.6,4.6,0,0,0-.305-2.18,2.3,2.3,0,0,0-1.526-.567l-1-.087V1h8.85V2.046l-1.264.131c-.785.087-1.264.392-1.439.872a5.036,5.036,0,0,0-.174,1.787V12.9l8.414-8.5c.61-.654.959-1.133.959-1.526s-.392-.61-1.221-.7L413.8,2.046V1h8.283V2.046A5.842,5.842,0,0,0,418.6,3.572l-7.324,7.106,8.719,9.94a4.878,4.878,0,0,0,2.267,1.569l.785.262Z" transform="translate(-226.128 -0.564)"/>
  <path id="Path_50" data-name="Path 50" class="cls-1" d="M62.365,13.343H60.272v6.1a4.9,4.9,0,0,0,.174,1.744c.218.436.7.654,1.482.741l1.177.131v1H54.3v-.959l1.177-.131a1.71,1.71,0,0,0,1.482-.785,4.571,4.571,0,0,0,.218-1.744V4.188a4.192,4.192,0,0,0-.131-1.308,1.178,1.178,0,0,0-.959-.7L54.78,1.964V.874h3.575c.7,0,1.657-.044,2.877-.087S63.193.7,63.455.7a7.719,7.719,0,0,1,5.667,1.962,5.982,5.982,0,0,1,1.744,4.359,5.4,5.4,0,0,1-1.657,3.836,6.837,6.837,0,0,1-3.575,2.005m1.831-5.319a5.524,5.524,0,0,0-1.221-4.011,4.927,4.927,0,0,0-3.793-1.264,14.042,14.042,0,0,0-2.18.174v9.634h1.613a6.178,6.178,0,0,0,4.054-1.264,4.175,4.175,0,0,0,1.526-3.27" transform="translate(-30.628 -0.395)"/>
  <path id="Path_51" data-name="Path 51" class="cls-1" d="M76.57,28.5a51.883,51.883,0,0,0,5.057,8.414c.741.872,3.008,3.444,4.665,4.1a7.176,7.176,0,0,0,2.485.61v.959c-.741.044-1.308.087-1.744.087A9.746,9.746,0,0,1,80.8,40.358c-1.787-1.787-5.58-7.585-7.5-11.553" transform="translate(-41.345 -16.075)"/>
  <path id="Path_52" data-name="Path 52" class="cls-1" d="M362.409,13.343h-2.136v6.1a4.9,4.9,0,0,0,.174,1.744c.174.436.7.654,1.482.741l1.177.131v1H354.3v-.959l1.177-.131a1.71,1.71,0,0,0,1.482-.785,4.9,4.9,0,0,0,.174-1.744V4.188A4.194,4.194,0,0,0,357,2.88a1.178,1.178,0,0,0-.959-.7l-1.308-.218V.874h3.575c.7,0,1.657-.044,2.877-.087S363.15.7,363.411.7a7.65,7.65,0,0,1,5.667,1.962,5.982,5.982,0,0,1,1.744,4.359,5.4,5.4,0,0,1-1.657,3.836,6.838,6.838,0,0,1-3.575,2.005m1.875-5.319a5.524,5.524,0,0,0-1.221-4.011,4.927,4.927,0,0,0-3.793-1.264,14.042,14.042,0,0,0-2.18.174v9.634h1.613a6.178,6.178,0,0,0,4.054-1.264,4.044,4.044,0,0,0,1.526-3.27" transform="translate(-199.843 -0.395)"/>
  <path id="Path_53" data-name="Path 53" class="cls-1" d="M376.67,28.5a51.885,51.885,0,0,0,5.057,8.414c.741.872,3.008,3.444,4.665,4.1a7.176,7.176,0,0,0,2.485.61v.959c-.741.044-1.308.087-1.744.087a9.746,9.746,0,0,1-6.234-2.311c-1.787-1.787-5.58-7.585-7.5-11.553" transform="translate(-210.617 -16.075)"/>
  <path id="Path_54" data-name="Path 54" class="cls-1" d="M451.557,20.058a1.974,1.974,0,0,1,1.351-2.572,1.421,1.421,0,0,1,1.4.567,1.915,1.915,0,0,1,.218,1.439,1.588,1.588,0,0,1-1.569,1.09,2.416,2.416,0,0,1-1-.174c0,.7.654,1,1.4,1,.436,0,.872-.131.872-.218a6.69,6.69,0,0,0,.741,2.834,5.754,5.754,0,0,0,.741-2.834c0,.131.436.218.872.218.741,0,1.4-.305,1.4-1a2.416,2.416,0,0,1-1,.174,1.55,1.55,0,0,1-1.569-1.09,2.183,2.183,0,0,1,.218-1.439,1.441,1.441,0,0,1,1.4-.567,1.974,1.974,0,0,1,1.351,2.572c.785,0,1.308-1.09,1.308-2.311a32.742,32.742,0,0,0,5.449-.785,28.742,28.742,0,0,0-5.449-.785c0-1.221-.523-2.311-1.308-2.311a1.974,1.974,0,0,1-1.351,2.572,1.42,1.42,0,0,1-1.4-.567,1.915,1.915,0,0,1-.218-1.439,1.588,1.588,0,0,1,1.569-1.09,2.416,2.416,0,0,1,1,.174c0-.7-.654-1-1.4-1-.436,0-.872.131-.872.218a6.691,6.691,0,0,0-.741-2.834,5.755,5.755,0,0,0-.741,2.834c0-.131-.436-.218-.872-.218-.741,0-1.4.305-1.4,1a2.262,2.262,0,0,1,1-.174,1.55,1.55,0,0,1,1.569,1.09,2.183,2.183,0,0,1-.218,1.439,1.441,1.441,0,0,1-1.4.567,1.974,1.974,0,0,1-1.351-2.572c-.785,0-1.308,1.09-1.308,2.311a32.742,32.742,0,0,0-5.449.785,28.742,28.742,0,0,0,5.449.785c0,1.221.523,2.311,1.308,2.311" transform="translate(-250.89 -5.584)"/>
  <path id="Path_55" data-name="Path 55" class="cls-1" d="M511.9,16.569a6.045,6.045,0,0,1-1.831,4.534,7.434,7.434,0,0,1-5.449,1.918h-9.417v-.959c.349-.087.741-.218,1.177-.349a1.24,1.24,0,0,0,.916-.872,7.521,7.521,0,0,0,.087-1.4V4.013a5.293,5.293,0,0,0-.087-1.09,1.133,1.133,0,0,0-1.046-.828L494.9,1.877v-1h4.229c.392,0,1.09-.044,2.049-.087S502.834.7,503.227.7c4.621,0,6.975,1.7,6.975,5.057a4.933,4.933,0,0,1-1,3.052,5.394,5.394,0,0,1-2.834,1.962v.087a6.784,6.784,0,0,1,4.142,2.223,5.223,5.223,0,0,1,1.4,3.488M507.281,5.975a3.519,3.519,0,0,0-1.09-2.659,4.125,4.125,0,0,0-2.964-1.09,21.3,21.3,0,0,0-2.7.131V10.2h2.18a5.185,5.185,0,0,0,3.531-.959,4.368,4.368,0,0,0,1.046-3.27m1.395,10.637c0-3.27-2.005-4.926-6.06-4.926H500.48v7.629c0,1.133.262,1.787.828,1.962a3.968,3.968,0,0,0,1.177.131h1.264a4.944,4.944,0,0,0,3.749-1.351,4.783,4.783,0,0,0,1.177-3.444" transform="translate(-279.149 -0.395)"/>
  <path id="Path_56" data-name="Path 56" class="cls-1" d="M601.5,17.971l-.872,5.319H584.762v-.959l1-.392a1.491,1.491,0,0,0,.785-.523,3,3,0,0,0,.131-1.09V4.239a4.361,4.361,0,0,0-.174-1.351,1.3,1.3,0,0,0-1.09-.61l-.915-.131V1.1h16.043l-.436,4.665H599.06c-.087-.48-.174-1.046-.305-1.7a1.4,1.4,0,0,0-.61-1.046A2.9,2.9,0,0,0,596.75,2.8h-6.932v8.545h5.972a5.645,5.645,0,0,0,1.482-.087,1.209,1.209,0,0,0,.959-.959l.305-1.177h1v6.147h-1l-.349-1.4a1.209,1.209,0,0,0-.959-.959,10.037,10.037,0,0,0-1.482-.044h-5.929v7.5c0,.523.043.828.174.959a1.376,1.376,0,0,0,.915.218H597.1a2.456,2.456,0,0,0,1.613-.436,4.505,4.505,0,0,0,1.046-1.657l.567-1.482H601.5Z" transform="translate(-329.688 -0.62)"/>
  <path id="Path_57" data-name="Path 57" class="cls-1" d="M650.677,11.7a11.024,11.024,0,0,1-3.052,7.934,11.591,11.591,0,0,1-8.763,3.444h-10.2v-.959l1.308-.305a1.675,1.675,0,0,0,1.09-.654,4.363,4.363,0,0,0,.174-1.351V3.9a2.451,2.451,0,0,0-.262-1.308,1.476,1.476,0,0,0-1.046-.48L628.4,1.933v-1h4.577c.654,0,1.657,0,2.965-.044S638.252.8,638.95.8a12.317,12.317,0,0,1,8.283,2.834,10.144,10.144,0,0,1,3.444,8.065m-3.531.436c0-3.1-.828-5.493-2.485-7.15q-2.55-2.616-7.586-2.616-.916,0-2.746.131V21.508h2.746c3.357,0,5.885-.872,7.586-2.572,1.7-1.569,2.485-3.88,2.485-6.8" transform="translate(-354.45 -0.451)"/>
  <path id="Path_58" data-name="Path 58" class="cls-1" d="M700.061,22.895h-6.539v-.959c.785-.044,1.133-.392,1.133-1a3.781,3.781,0,0,0-.174-1.133l-1.613-4.185h-8.5l-1.308,3.27a4.251,4.251,0,0,0-.3,1.351c0,.741.654,1.308,1.918,1.7v.959H678.7v-.959c.785-.174,1.569-1.264,2.441-3.182L686.46,6.329c.523-1.308,1.308-3.27,2.4-5.929h1.352c.174.654.828,2.311,1.875,4.97l5.711,14.43a2.943,2.943,0,0,0,2.267,2.136v.959Zm-7.8-8.937L688.727,4.89l-3.706,9.068Z" transform="translate(-382.821 -0.226)"/>
  <path id="Path_59" data-name="Path 59" class="cls-1" d="M546.565,13.343h-2.136v6.1a4.575,4.575,0,0,0,.218,1.744c.175.436.7.654,1.482.741l1.177.131v1H538.5v-.959l1.177-.131a1.772,1.772,0,0,0,1.482-.785,4.895,4.895,0,0,0,.174-1.744V4.188A4.194,4.194,0,0,0,541.2,2.88a1.119,1.119,0,0,0-.959-.7l-1.308-.218V.874h3.575c.7,0,1.657-.044,2.877-.087S547.35.7,547.611.7a7.651,7.651,0,0,1,5.667,1.962,5.814,5.814,0,0,1,1.744,4.359,5.4,5.4,0,0,1-1.657,3.836,6.837,6.837,0,0,1-3.575,2.005m1.875-5.319a5.524,5.524,0,0,0-1.221-4.011,4.927,4.927,0,0,0-3.793-1.264,14.041,14.041,0,0,0-2.18.174v9.634h1.613a6.178,6.178,0,0,0,4.054-1.264,4.175,4.175,0,0,0,1.526-3.27" transform="translate(-303.742 -0.395)"/>
  <path id="Path_60" data-name="Path 60" class="cls-1" d="M560.77,28.5a51.88,51.88,0,0,0,5.057,8.414c.741.872,3.008,3.444,4.665,4.1a7.177,7.177,0,0,0,2.485.61v.959c-.741.044-1.308.087-1.744.087A9.746,9.746,0,0,1,565,40.358c-1.787-1.787-5.58-7.585-7.5-11.553" transform="translate(-314.459 -16.075)"/>
</svg>
